<?xml version="1.0" encoding="UTF-8"?>
<!DOCTYPE svg PUBLIC "-//W3C//DTD SVG 1.1//EN" "http://www.w3.org/Graphics/SVG/1.1/DTD/svg11.dtd">
<svg xmlns="http://www.w3.org/2000/svg" version="1.1" width="1024px" height="1024px" style="shape-rendering:geometricPrecision; text-rendering:geometricPrecision; image-rendering:optimizeQuality; fill-rule:evenodd; clip-rule:evenodd" xmlns:xlink="http://www.w3.org/1999/xlink">
<g><path style="opacity:1" fill="#0f0a13" d="M -0.5,-0.5 C 340.833,-0.5 682.167,-0.5 1023.5,-0.5C 1023.5,340.833 1023.5,682.167 1023.5,1023.5C 682.167,1023.5 340.833,1023.5 -0.5,1023.5C -0.5,682.167 -0.5,340.833 -0.5,-0.5 Z"/></g>
<g><path style="opacity:1" fill="#9e4ef3" d="M 501.5,201.5 C 535.103,199.887 565.77,208.054 593.5,226C 594.448,226.483 595.448,226.649 596.5,226.5C 596.327,229.505 594.827,231.505 592,232.5C 542.427,211.021 491.927,208.854 440.5,226C 434.769,228.315 429.269,231.149 424,234.5C 422.263,233.38 420.429,232.38 418.5,231.5C 417.417,230.635 417.251,229.635 418,228.5C 420.404,225.57 423.237,223.236 426.5,221.5C 431.607,219.78 436.274,217.28 440.5,214C 460.225,206.422 480.558,202.255 501.5,201.5 Z"/></g>
<g><path style="opacity:1" fill="#929094" d="M 654.5,296.5 C 657.609,287.274 660.442,277.94 663,268.5C 663.574,258.833 664.074,249.167 664.5,239.5C 665.589,235.922 665.755,232.255 665,228.5C 662.2,227.557 659.366,227.724 656.5,229C 644.551,234.95 634.384,243.116 626,253.5C 619.769,261.526 614.269,270.026 609.5,279C 616.931,287.103 624.431,295.27 632,303.5C 637.667,313.5 643.333,323.5 649,333.5C 649.977,335.74 650.477,338.073 650.5,340.5C 645.256,340.118 640.256,339.118 635.5,337.5C 632.375,336.521 629.042,336.187 625.5,336.5C 609.973,319.939 590.973,314.106 568.5,319C 557.994,322.419 549.994,328.919 544.5,338.5C 544.957,339.298 545.624,339.631 546.5,339.5C 536.587,340.751 528.92,345.584 523.5,354C 512.356,358.833 501.523,358.333 491,352.5C 489.878,350.58 489.044,348.58 488.5,346.5C 485.286,345.56 482.286,344.06 479.5,342C 474.009,341.33 469.009,339.83 464.5,337.5C 466.288,337.785 467.955,337.452 469.5,336.5C 467.525,333.391 465.192,330.557 462.5,328C 457.476,324.963 452.476,321.963 447.5,319C 428.897,314.817 412.231,318.817 397.5,331C 396.122,332.713 394.455,334.047 392.5,335C 393.094,335.464 393.761,335.631 394.5,335.5C 394.389,336.117 394.056,336.617 393.5,337C 383.827,338.213 374.161,338.379 364.5,337.5C 366.84,326.821 371.34,317.155 378,308.5C 387.011,298.322 396.511,288.655 406.5,279.5C 395.792,257.543 379.792,240.71 358.5,229C 355.854,228.503 353.187,228.336 350.5,228.5C 350.237,232.6 350.57,236.6 351.5,240.5C 351.244,250.541 351.744,260.541 353,270.5C 355.36,280.937 357.86,291.27 360.5,301.5C 358.807,305.703 355.807,308.203 351.5,309C 343.132,297.24 338.299,284.074 337,269.5C 335.903,253.364 336.903,237.364 340,221.5C 340.772,220.151 341.939,219.318 343.5,219C 370.916,217.58 394.249,226.58 413.5,246C 417.467,250.792 421.301,255.625 425,260.5C 425.956,261.894 427.289,262.561 429,262.5C 454.033,249.834 480.699,243.501 509,243.5C 533.613,243.362 557.113,248.362 579.5,258.5C 584.272,253.902 589.272,249.402 594.5,245C 606.5,238 618.5,231 630.5,224C 641.232,220.487 652.232,218.32 663.5,217.5C 667.748,217.186 671.581,218.186 675,220.5C 678.622,229.46 680.455,238.794 680.5,248.5C 679.398,269.242 674.398,288.909 665.5,307.5C 661.358,305.88 657.858,303.214 655,299.5C 654.517,298.552 654.351,297.552 654.5,296.5 Z"/></g>
<g><path style="opacity:1" fill="#4b4254" d="M 664.5,239.5 C 664.074,249.167 663.574,258.833 663,268.5C 660.442,277.94 657.609,287.274 654.5,296.5C 651.959,294.794 649.959,292.627 648.5,290C 650.192,284.118 652.025,278.285 654,272.5C 655.128,267.288 652.961,264.788 647.5,265C 653.314,256.521 658.981,248.021 664.5,239.5 Z"/></g>
<g><path style="opacity:1" fill="#4b4354" d="M 351.5,240.5 C 356.053,246.942 359.386,254.108 361.5,262C 359.822,263.932 359.322,266.098 360,268.5C 361.635,276.109 364.135,283.442 367.5,290.5C 366.482,291.852 365.149,292.852 363.5,293.5C 362.791,296.384 361.791,299.051 360.5,301.5C 357.86,291.27 355.36,280.937 353,270.5C 351.744,260.541 351.244,250.541 351.5,240.5 Z"/></g>
<g><path style="opacity:1" fill="#a250fc" d="M 263.5,281.5 C 276.842,279.944 288.009,283.944 297,293.5C 297.965,297.782 297.298,301.782 295,305.5C 288.431,312.739 281.265,319.239 273.5,325C 259.26,332.619 244.927,339.953 230.5,347C 222.528,354.633 215.695,363.133 210,372.5C 204.695,378.567 198.195,382.734 190.5,385C 182.03,385.888 176.863,382.054 175,373.5C 174.333,368.833 174.333,364.167 175,359.5C 188.761,315.569 218.261,289.569 263.5,281.5 Z"/></g>
<g><path style="opacity:1" fill="#fe8600" d="M 752.5,504.5 C 752.649,505.552 752.483,506.552 752,507.5C 744.5,514.333 737,521.167 729.5,528C 720.529,534.265 710.862,539.099 700.5,542.5C 687.06,522.704 671.06,505.037 652.5,489.5C 651.134,486.743 651.801,484.577 654.5,483C 667.499,477.014 678.832,468.847 688.5,458.5C 687.687,457.186 686.687,456.019 685.5,455C 696.598,447.57 706.098,438.403 714,427.5C 714.458,424.904 713.625,422.737 711.5,421C 706.085,418.084 701.085,414.584 696.5,410.5C 701.304,404.56 704.804,397.893 707,390.5C 708.615,380.218 709.781,369.884 710.5,359.5C 718.7,357.05 726.366,353.55 733.5,349C 744.64,340.029 755.64,330.863 766.5,321.5C 792.805,301.756 817.972,303.089 842,325.5C 847.839,333.678 850.673,342.845 850.5,353C 847.238,380.509 834.572,402.842 812.5,420C 798.822,430.179 784.156,438.845 768.5,446C 753.316,453.182 740.483,463.349 730,476.5C 724.578,484.752 724.244,493.085 729,501.5C 736.24,506.763 744.073,507.763 752.5,504.5 Z"/></g>
<g><path style="opacity:1" fill="#dbdbdb" d="M 464.5,337.5 C 441.209,335.749 417.876,335.082 394.5,335.5C 393.761,335.631 393.094,335.464 392.5,335C 394.455,334.047 396.122,332.713 397.5,331C 412.231,318.817 428.897,314.817 447.5,319C 452.476,321.963 457.476,324.963 462.5,328C 465.192,330.557 467.525,333.391 469.5,336.5C 467.955,337.452 466.288,337.785 464.5,337.5 Z"/></g>
<g><path style="opacity:1" fill="#dbdbdb" d="M 625.5,336.5 C 606.02,335.211 586.687,335.211 567.5,336.5C 560.203,336.33 553.203,337.33 546.5,339.5C 545.624,339.631 544.957,339.298 544.5,338.5C 549.994,328.919 557.994,322.419 568.5,319C 590.973,314.106 609.973,319.939 625.5,336.5 Z"/></g>
<g><path style="opacity:1" fill="#a250fc" d="M 340.5,323.5 C 343.833,323.5 347.167,323.5 350.5,323.5C 348.577,330.107 346.744,336.774 345,343.5C 343.318,353.754 342.151,364.087 341.5,374.5C 339.481,382.875 335.648,390.208 330,396.5C 325.789,392.079 323.123,386.746 322,380.5C 319.556,363.505 321.89,347.172 329,331.5C 332.482,328.161 336.315,325.494 340.5,323.5 Z"/></g>
<g><path style="opacity:1" fill="#a04ff9" d="M 666.5,323.5 C 681.55,323.271 690.05,330.604 692,345.5C 695.636,361.533 694.969,377.2 690,392.5C 688.938,393.899 687.605,394.899 686,395.5C 680.553,390.282 676.886,383.948 675,376.5C 673.307,365.21 671.974,353.876 671,342.5C 667.495,336.518 665.995,330.184 666.5,323.5 Z"/></g>
<g><path style="opacity:1" fill="#545156" d="M 567.5,336.5 C 586.687,335.211 606.02,335.211 625.5,336.5C 629.042,336.187 632.375,336.521 635.5,337.5C 612.843,336.689 590.176,336.356 567.5,336.5 Z"/></g>
<g><path style="opacity:1" fill="#d7d6d7" d="M 425.5,355.5 C 420.249,357.619 414.915,360.119 409.5,363C 401.697,368.31 394.363,374.143 387.5,380.5C 385.883,379.411 385.05,377.744 385,375.5C 384.169,369.141 384.336,362.807 385.5,356.5C 398.751,353.061 412.084,352.728 425.5,355.5 Z"/></g>
<g><path style="opacity:1" fill="#d9d9d9" d="M 592.5,353.5 C 605.219,353.102 617.886,353.602 630.5,355C 632.803,361.837 633.136,368.837 631.5,376C 631.431,377.986 630.765,379.486 629.5,380.5C 621.741,374.109 613.741,367.942 605.5,362C 599.672,358.335 593.339,356.169 586.5,355.5C 588.631,354.831 590.631,354.165 592.5,353.5 Z"/></g>
<g><path style="opacity:1" fill="#4a4152" d="M 592.5,353.5 C 590.631,354.165 588.631,354.831 586.5,355.5C 593.339,356.169 599.672,358.335 605.5,362C 613.741,367.942 621.741,374.109 629.5,380.5C 628.566,390.902 626.066,400.902 622,410.5C 618.936,415.789 614.436,419.289 608.5,421C 593.348,425.191 578.182,425.358 563,421.5C 552.68,419.18 546.347,412.847 544,402.5C 540.726,393.073 538.56,383.406 537.5,373.5C 536.959,368.082 538.959,363.915 543.5,361C 546.948,359.073 550.615,357.739 554.5,357C 567.092,355.034 579.759,353.867 592.5,353.5 Z"/></g>
<g><path style="opacity:1" fill="#494152" d="M 425.5,355.5 C 435.045,356.061 444.545,356.061 454,355.5C 460.474,356.326 466.641,358.16 472.5,361C 477.159,363.834 479.492,368.001 479.5,373.5C 478.031,387.406 473.864,400.406 467,412.5C 461.361,418.236 454.528,421.736 446.5,423C 431.474,425.622 416.807,424.288 402.5,419C 398.667,416.5 395.5,413.333 393,409.5C 389.946,400.064 388.113,390.397 387.5,380.5C 394.363,374.143 401.697,368.31 409.5,363C 414.915,360.119 420.249,357.619 425.5,355.5 Z"/></g>
<g><path style="opacity:1" fill="#ef33a4" d="M 318.5,447.5 C 310.168,453.806 301.501,459.806 292.5,465.5C 282.279,473.563 274.446,483.563 269,495.5C 266.924,505.14 263.924,514.474 260,523.5C 253.583,531.909 245.416,538.076 235.5,542C 223.174,545.993 211.507,551.326 200.5,558C 183.585,573.07 176.752,591.903 180,614.5C 182.284,624.753 184.117,635.086 185.5,645.5C 185.639,647.883 184.972,649.883 183.5,651.5C 179.12,649.3 175.12,646.467 171.5,643C 163.311,634.112 155.478,624.946 148,615.5C 141.813,604.077 137.146,592.077 134,579.5C 131.514,559.895 134.514,541.228 143,523.5C 148.211,517.958 153.044,512.125 157.5,506C 171.225,495.943 185.225,486.276 199.5,477C 206.741,470.692 211.574,462.859 214,453.5C 213.912,410.811 233.745,381.978 273.5,367C 284.215,363.493 295.215,361.993 306.5,362.5C 305.791,376.958 307.958,390.958 313,404.5C 314.377,406.754 315.877,408.92 317.5,411C 313.39,415.109 308.723,418.443 303.5,421C 302.282,422.438 301.615,424.105 301.5,426C 302.13,429.296 303.63,432.13 306,434.5C 309.753,439.417 313.92,443.75 318.5,447.5 Z"/></g>
<g><path style="opacity:1" fill="#d7d7d7" d="M 370.5,405.5 C 370.719,406.675 370.386,407.675 369.5,408.5C 357.235,415.794 344.901,422.794 332.5,429.5C 331.167,429.5 329.833,429.5 328.5,429.5C 326.044,428.878 324.377,427.378 323.5,425C 333.293,416.872 342.126,407.705 350,397.5C 356.028,386.395 360.695,374.729 364,362.5C 365.011,361.663 366.178,361.33 367.5,361.5C 368.274,373.801 368.774,386.134 369,398.5C 369.662,400.813 370.162,403.146 370.5,405.5 Z"/></g>
<g><path style="opacity:1" fill="#d8d8d8" d="M 687.5,428.5 C 685.379,428.675 683.379,428.341 681.5,427.5C 677.398,427.058 673.731,425.558 670.5,423C 663.058,416.609 655.725,410.109 648.5,403.5C 647.257,390.165 647.59,376.832 649.5,363.5C 650.167,363.167 650.833,362.833 651.5,362.5C 656.366,374.589 661.533,386.589 667,398.5C 670.333,403.167 673.667,407.833 677,412.5C 681.667,416.5 686.333,420.5 691,424.5C 691.168,426.841 690.001,428.174 687.5,428.5 Z"/></g>
<g><path style="opacity:1" fill="#0f0a13" d="M 567.5,364.5 C 581.922,363.283 595.256,366.449 607.5,374C 618.679,383.972 620.512,395.472 613,408.5C 607.102,414.148 599.935,417.314 591.5,418C 581.132,419.394 571.132,418.061 561.5,414C 548.579,404.749 543.579,392.249 546.5,376.5C 548.614,373.944 550.947,371.611 553.5,369.5C 558.269,367.766 562.935,366.1 567.5,364.5 Z"/></g>
<g><path style="opacity:1" fill="#0f0a13" d="M 433.5,364.5 C 445.808,363.088 456.808,366.088 466.5,373.5C 469.511,376.525 471.178,380.192 471.5,384.5C 469.632,403.534 459.298,414.701 440.5,418C 428.537,419.451 417.203,417.451 406.5,412C 394.318,396.61 396.318,383.277 412.5,372C 419.209,368.295 426.209,365.795 433.5,364.5 Z"/></g>
<g><path style="opacity:1" fill="#d5d5d5" d="M 442.5,375.5 C 450.562,374.421 454.729,377.754 455,385.5C 451.086,392.096 446.086,393.096 440,388.5C 437.458,383.438 438.292,379.105 442.5,375.5 Z"/></g>
<g><path style="opacity:1" fill="#d6d5d6" d="M 565.5,375.5 C 576.116,374.925 579.45,379.425 575.5,389C 566.266,393.47 561.433,390.637 561,380.5C 562.025,378.313 563.525,376.646 565.5,375.5 Z"/></g>
<g><path style="opacity:1" fill="#918f93" d="M 527.5,408.5 C 514.512,407.186 501.512,407.186 488.5,408.5C 491.88,400.071 495.546,391.737 499.5,383.5C 507.156,378.851 513.989,379.851 520,386.5C 523.208,393.625 525.708,400.958 527.5,408.5 Z"/></g>
<g><path style="opacity:1" fill="#4b4254" d="M 648.5,403.5 C 655.725,410.109 663.058,416.609 670.5,423C 673.731,425.558 677.398,427.058 681.5,427.5C 671.246,436.282 659.246,441.282 645.5,442.5C 645.622,445.292 646.956,447.292 649.5,448.5C 650.3,450.682 651.8,452.349 654,453.5C 654.667,454.5 654.667,455.5 654,456.5C 645.98,463.512 637.147,469.345 627.5,474C 605.786,481.864 584.12,489.697 562.5,497.5C 570.905,491.924 577.405,484.591 582,475.5C 582.494,473.866 582.66,472.199 582.5,470.5C 585.426,471.461 588.426,472.127 591.5,472.5C 591.703,470.61 591.037,469.11 589.5,468C 586.749,467.057 584.083,466.224 581.5,465.5C 582.822,465.67 583.989,465.337 585,464.5C 585.497,462.19 585.663,459.857 585.5,457.5C 590.466,460.315 595.799,461.981 601.5,462.5C 601.5,461.5 601.5,460.5 601.5,459.5C 595.79,456.314 589.79,453.648 583.5,451.5C 583.702,449.05 583.369,446.717 582.5,444.5C 598.647,445.088 613.98,441.921 628.5,435C 638.837,426.825 645.504,416.325 648.5,403.5 Z"/></g>
<g><path style="opacity:1" fill="#d9d9d9" d="M 527.5,408.5 C 533.973,423.798 545.306,433.632 561.5,438C 567.201,439.028 572.868,440.195 578.5,441.5C 579.283,443.288 580.616,444.288 582.5,444.5C 583.369,446.717 583.702,449.05 583.5,451.5C 578.504,450.841 573.504,450.174 568.5,449.5C 566.167,449.667 563.833,449.833 561.5,450C 559.043,451.154 559.043,452.488 561.5,454C 569.559,454.843 577.559,456.01 585.5,457.5C 585.663,459.857 585.497,462.19 585,464.5C 583.989,465.337 582.822,465.67 581.5,465.5C 573.519,461.921 565.186,460.087 556.5,460C 564.592,465.191 573.259,468.691 582.5,470.5C 582.66,472.199 582.494,473.866 582,475.5C 577.405,484.591 570.905,491.924 562.5,497.5C 536.239,511.887 508.239,515.72 478.5,509C 469.806,505.649 461.473,501.815 453.5,497.5C 444.152,490.828 437.485,482.162 433.5,471.5C 434.058,470.21 435.058,469.377 436.5,469C 444.057,467.112 451.39,464.612 458.5,461.5C 459.386,460.675 459.719,459.675 459.5,458.5C 449.776,459.93 440.443,462.596 431.5,466.5C 431.5,463.833 431.5,461.167 431.5,458.5C 431.611,457.883 431.944,457.383 432.5,457C 441.831,454.84 451.164,453.006 460.5,451.5C 459.624,450.749 458.624,450.249 457.5,450C 448.694,449.04 440.027,449.54 431.5,451.5C 431.833,449.5 432.167,447.5 432.5,445.5C 445.778,443.061 458.444,438.561 470.5,432C 474,428.5 477.5,425 481,421.5C 483.512,417.139 486.012,412.806 488.5,408.5C 501.512,407.186 514.512,407.186 527.5,408.5 Z"/></g>
<g><path style="opacity:1" fill="#4b4254" d="M 370.5,405.5 C 375.169,419.021 383.503,429.854 395.5,438C 407.643,441.462 419.977,443.962 432.5,445.5C 432.167,447.5 431.833,449.5 431.5,451.5C 426.98,453.093 422.647,455.26 418.5,458C 416.963,459.11 416.297,460.61 416.5,462.5C 421.382,460.762 426.382,459.429 431.5,458.5C 431.5,461.167 431.5,463.833 431.5,466.5C 429.141,467.176 426.808,468.009 424.5,469C 422.937,471.476 423.604,472.976 426.5,473.5C 428.762,472.533 431.095,471.866 433.5,471.5C 437.485,482.162 444.152,490.828 453.5,497.5C 418.105,490.956 386.105,477.122 357.5,456C 359.401,454.271 361.068,452.438 362.5,450.5C 366.55,449.65 370.05,447.65 373,444.5C 373.49,443.207 373.657,441.873 373.5,440.5C 358.389,441.49 344.723,437.823 332.5,429.5C 344.901,422.794 357.235,415.794 369.5,408.5C 370.386,407.675 370.719,406.675 370.5,405.5 Z"/></g>
<g><path style="opacity:1" fill="#110c14" d="M 494.5,424.5 C 503.839,424.334 513.173,424.5 522.5,425C 534.666,428.508 538.166,436.008 533,447.5C 527.827,452.752 521.827,456.752 515,459.5C 514.513,470.848 520.013,476.514 531.5,476.5C 534.358,476.359 537.192,476.026 540,475.5C 542.034,475.432 543.534,476.266 544.5,478C 538.454,487.215 530.12,490.215 519.5,487C 515.796,484.818 512.129,482.651 508.5,480.5C 504.346,482.41 500.346,484.577 496.5,487C 491.167,487.667 485.833,487.667 480.5,487C 475.332,485.34 472.665,481.84 472.5,476.5C 479.589,476.884 486.589,476.384 493.5,475C 506.451,465.771 505.451,458.771 490.5,454C 487.296,451.131 484.463,447.965 482,444.5C 480.35,438.074 481.85,432.574 486.5,428C 489.309,426.907 491.976,425.74 494.5,424.5 Z"/></g>
<g><path style="opacity:1" fill="#8d8b8f" d="M 328.5,429.5 C 329.833,429.5 331.167,429.5 332.5,429.5C 344.723,437.823 358.389,441.49 373.5,440.5C 373.657,441.873 373.49,443.207 373,444.5C 370.05,447.65 366.55,449.65 362.5,450.5C 362.5,448.833 362.5,447.167 362.5,445.5C 348.889,444.936 337.556,439.603 328.5,429.5 Z"/></g>
<g><path style="opacity:1" fill="#8f8d91" d="M 681.5,427.5 C 683.379,428.341 685.379,428.675 687.5,428.5C 679.608,434.461 671.275,439.961 662.5,445C 658.296,446.764 653.962,447.93 649.5,448.5C 646.956,447.292 645.622,445.292 645.5,442.5C 659.246,441.282 671.246,436.282 681.5,427.5 Z"/></g>
<g><path style="opacity:1" fill="#fe8600" d="M 318.5,447.5 C 323.101,448.914 327.101,451.414 330.5,455C 326.385,458.601 326.719,461.934 331.5,465C 341.179,472.162 351.513,478.328 362.5,483.5C 363.833,485.167 363.833,486.833 362.5,488.5C 339.434,507.388 320.6,529.722 306,555.5C 299.256,568.318 293.089,581.318 287.5,594.5C 262.402,595.949 244.568,607.949 234,630.5C 232.358,635.708 231.358,641.041 231,646.5C 229.244,647.421 229.077,648.588 230.5,650C 227.802,659.562 224.135,668.729 219.5,677.5C 213.446,684.732 207.113,691.899 200.5,699C 195.529,701.87 190.862,705.204 186.5,709C 180.058,711.028 174.391,714.195 169.5,718.5C 167.574,710.896 168.574,703.562 172.5,696.5C 178.582,689.452 183.082,681.452 186,672.5C 186.667,669.167 186.667,665.833 186,662.5C 185.052,658.832 184.219,655.165 183.5,651.5C 184.972,649.883 185.639,647.883 185.5,645.5C 184.117,635.086 182.284,624.753 180,614.5C 176.752,591.903 183.585,573.07 200.5,558C 211.507,551.326 223.174,545.993 235.5,542C 245.416,538.076 253.583,531.909 260,523.5C 263.924,514.474 266.924,505.14 269,495.5C 274.446,483.563 282.279,473.563 292.5,465.5C 301.501,459.806 310.168,453.806 318.5,447.5 Z"/></g>
<g><path style="opacity:1" fill="#151218" d="M 431.5,458.5 C 426.382,459.429 421.382,460.762 416.5,462.5C 416.297,460.61 416.963,459.11 418.5,458C 422.647,455.26 426.98,453.093 431.5,451.5C 440.027,449.54 448.694,449.04 457.5,450C 458.624,450.249 459.624,450.749 460.5,451.5C 451.164,453.006 441.831,454.84 432.5,457C 431.944,457.383 431.611,457.883 431.5,458.5 Z"/></g>
<g><path style="opacity:1" fill="#18151b" d="M 583.5,451.5 C 589.79,453.648 595.79,456.314 601.5,459.5C 601.5,460.5 601.5,461.5 601.5,462.5C 595.799,461.981 590.466,460.315 585.5,457.5C 577.559,456.01 569.559,454.843 561.5,454C 559.043,452.488 559.043,451.154 561.5,450C 563.833,449.833 566.167,449.667 568.5,449.5C 573.504,450.174 578.504,450.841 583.5,451.5 Z"/></g>
<g><path style="opacity:1" fill="#fdce56" d="M 700.5,542.5 C 710.862,539.099 720.529,534.265 729.5,528C 737,521.167 744.5,514.333 752,507.5C 752.483,506.552 752.649,505.552 752.5,504.5C 756.633,502.6 760.633,500.433 764.5,498C 780.001,484.745 797.001,473.745 815.5,465C 827.581,458.875 840.247,456.875 853.5,459C 863.724,462.583 869.891,469.749 872,480.5C 874.257,496.484 871.257,511.484 863,525.5C 854.252,538.917 843.418,550.417 830.5,560C 815.998,568.75 801.665,577.75 787.5,587C 782.194,591.431 777.694,596.597 774,602.5C 769.821,615.153 774.154,622.819 787,625.5C 794.031,624.934 800.531,622.767 806.5,619C 812.167,614.667 817.833,610.333 823.5,606C 833.665,600.364 842.832,601.53 851,609.5C 854.513,620.054 853.846,630.388 849,640.5C 831.714,671.786 807.214,695.619 775.5,712C 753.067,723.686 729.234,728.186 704,725.5C 715.112,717.055 725.112,707.055 734,695.5C 743.279,678.157 745.946,659.823 742,640.5C 733.327,605.506 719.494,572.84 700.5,542.5 Z"/></g>
<g><path style="opacity:1" fill="#151218" d="M 581.5,465.5 C 584.083,466.224 586.749,467.057 589.5,468C 591.037,469.11 591.703,470.61 591.5,472.5C 588.426,472.127 585.426,471.461 582.5,470.5C 573.259,468.691 564.592,465.191 556.5,460C 565.186,460.087 573.519,461.921 581.5,465.5 Z"/></g>
<g><path style="opacity:1" fill="#151118" d="M 433.5,471.5 C 431.095,471.866 428.762,472.533 426.5,473.5C 423.604,472.976 422.937,471.476 424.5,469C 426.808,468.009 429.141,467.176 431.5,466.5C 440.443,462.596 449.776,459.93 459.5,458.5C 459.719,459.675 459.386,460.675 458.5,461.5C 451.39,464.612 444.057,467.112 436.5,469C 435.058,469.377 434.058,470.21 433.5,471.5 Z"/></g>
<g><path style="opacity:1" fill="#4c4455" d="M 643.5,505.5 C 638.338,508.207 633.005,510.707 627.5,513C 605.065,520.385 582.732,528.051 560.5,536C 551.194,537.243 542.194,539.576 533.5,543C 519.225,545.853 504.891,546.186 490.5,544C 482.867,542.561 475.2,541.228 467.5,540C 439.354,530.508 411.354,520.841 383.5,511C 380.171,509.671 377.171,507.837 374.5,505.5C 376.7,503.36 379.367,501.86 382.5,501C 383.833,500.333 385.167,500.333 386.5,501C 407.793,509.977 429.126,518.977 450.5,528C 464.311,531.162 477.977,534.828 491.5,539C 505.551,539.347 519.551,538.68 533.5,537C 564.503,527.444 594.836,516.11 624.5,503C 631.238,501.831 637.571,502.665 643.5,505.5 Z"/></g>
<g><path style="opacity:1" fill="#918f93" d="M 374.5,505.5 C 377.171,507.837 380.171,509.671 383.5,511C 411.354,520.841 439.354,530.508 467.5,540C 475.2,541.228 482.867,542.561 490.5,544C 504.891,546.186 519.225,545.853 533.5,543C 542.194,539.576 551.194,537.243 560.5,536C 582.732,528.051 605.065,520.385 627.5,513C 633.005,510.707 638.338,508.207 643.5,505.5C 646.067,506.75 648.733,507.917 651.5,509C 680.391,537.259 701.891,570.425 716,608.5C 719.831,620.833 723.498,633.167 727,645.5C 728.758,657.439 726.591,668.439 720.5,678.5C 715.852,681.828 710.852,684.661 705.5,687C 704.167,687.667 702.833,687.667 701.5,687C 698.846,680.685 696.013,674.519 693,668.5C 685.554,658.029 675.388,653.362 662.5,654.5C 662.5,653.167 662.5,651.833 662.5,650.5C 662.047,646.574 663.38,643.408 666.5,641C 676.976,635.875 687.976,632.708 699.5,631.5C 699.822,629.278 699.155,627.444 697.5,626C 685.45,620.203 673.283,620.037 661,625.5C 661.111,613.719 662.444,602.053 665,590.5C 668.246,577.915 665.08,567.415 655.5,559C 650.825,556.442 645.825,554.942 640.5,554.5C 549.058,554.742 457.391,555.242 365.5,556C 353.076,562.014 347.909,571.848 350,585.5C 351.583,597.165 353.083,608.832 354.5,620.5C 340.505,618.471 327.338,620.804 315,627.5C 314.517,628.448 314.351,629.448 314.5,630.5C 326.273,629.688 337.606,631.522 348.5,636C 353.477,640.792 355.477,646.625 354.5,653.5C 331.025,652.979 317.692,664.312 314.5,687.5C 312.473,687.662 310.473,687.495 308.5,687C 306.595,685.579 304.595,684.412 302.5,683.5C 291.463,670.2 287.296,654.867 290,637.5C 292.125,629.881 294.125,622.214 296,614.5C 304.106,596.287 312.772,578.287 322,560.5C 332.55,542.606 345.383,526.439 360.5,512C 364.869,509.115 369.536,506.949 374.5,505.5 Z"/></g>
<g><path style="opacity:1" fill="#6c498d" d="M 648.5,578.5 C 558.443,578.008 468.443,578.508 378.5,580C 376.416,581.501 375.083,583.501 374.5,586C 379.622,629.48 384.622,672.98 389.5,716.5C 386.528,714.359 384.028,711.692 382,708.5C 376.106,664.784 371.106,621.117 367,577.5C 368.167,575.667 369.333,573.833 370.5,572C 460.79,570.343 551.123,570.01 641.5,571C 645.428,572.092 647.761,574.592 648.5,578.5 Z"/></g>
<g><path style="opacity:1" fill="#a350fe" d="M 648.5,578.5 C 649.589,582.078 649.755,585.745 649,589.5C 642.973,628.693 637.973,668.027 634,707.5C 632.53,711.242 630.03,714.075 626.5,716C 621.115,716.214 615.781,716.714 610.5,717.5C 590.798,716.366 571.131,716.366 551.5,717.5C 536.976,717.064 521.976,717.064 506.5,717.5C 468.231,717.426 429.231,717.093 389.5,716.5C 384.622,672.98 379.622,629.48 374.5,586C 375.083,583.501 376.416,581.501 378.5,580C 468.443,578.508 558.443,578.008 648.5,578.5 Z"/></g>
<g><path style="opacity:1" fill="#fdcd56" d="M 287.5,594.5 C 282.51,608.305 278.01,622.305 274,636.5C 267.05,668.649 275.883,695.483 300.5,717C 290.397,718.015 280.397,719.682 270.5,722C 256.253,727.292 241.92,732.292 227.5,737C 210.369,740.518 194.036,738.518 178.5,731C 174.093,727.773 171.093,723.606 169.5,718.5C 174.391,714.195 180.058,711.028 186.5,709C 190.862,705.204 195.529,701.87 200.5,699C 207.113,691.899 213.446,684.732 219.5,677.5C 224.135,668.729 227.802,659.562 230.5,650C 229.077,648.588 229.244,647.421 231,646.5C 231.358,641.041 232.358,635.708 234,630.5C 244.568,607.949 262.402,595.949 287.5,594.5 Z"/></g>
<g><path style="opacity:1" fill="#dbdadc" d="M 501.5,621.5 C 515.084,620.044 525.251,625.378 532,637.5C 535.442,653.504 529.609,664.67 514.5,671C 499.694,673.184 489.527,667.351 484,653.5C 481.572,638.141 487.406,627.474 501.5,621.5 Z"/></g>
<g><path style="opacity:1" fill="#4b4254" d="M 354.5,653.5 C 355.498,662.158 356.498,670.824 357.5,679.5C 357.167,680.5 356.833,681.5 356.5,682.5C 353.723,679.128 351.057,675.628 348.5,672C 346.19,671.503 343.857,671.337 341.5,671.5C 341.334,675.846 341.501,680.179 342,684.5C 344.893,691.258 346.06,698.258 345.5,705.5C 341.431,699.706 337.597,693.706 334,687.5C 331.736,684.48 328.903,683.813 325.5,685.5C 324.669,692.142 324.169,698.809 324,705.5C 323.781,706.938 323.281,708.271 322.5,709.5C 313.901,702.245 307.235,693.579 302.5,683.5C 304.595,684.412 306.595,685.579 308.5,687C 310.473,687.495 312.473,687.662 314.5,687.5C 317.692,664.312 331.025,652.979 354.5,653.5 Z"/></g>
<g><path style="opacity:1" fill="#4b4253" d="M 662.5,650.5 C 662.5,651.833 662.5,653.167 662.5,654.5C 675.388,653.362 685.554,658.029 693,668.5C 696.013,674.519 698.846,680.685 701.5,687C 702.833,687.667 704.167,687.667 705.5,687C 710.852,684.661 715.852,681.828 720.5,678.5C 715.12,692.212 705.453,701.546 691.5,706.5C 690.993,699.542 690.993,692.542 691.5,685.5C 688.833,685.5 686.167,685.5 683.5,685.5C 679.636,692.369 674.303,698.036 667.5,702.5C 667.167,702 666.833,701.5 666.5,701C 671.207,692.052 673.541,682.552 673.5,672.5C 667.515,671.169 662.849,673.002 659.5,678C 658.123,679.241 656.79,679.408 655.5,678.5C 658.104,669.121 660.437,659.788 662.5,650.5 Z"/></g>
<g><path style="opacity:1" fill="#21142e" d="M 551.5,717.5 C 548.484,718.059 545.484,718.725 542.5,719.5C 530.372,718.852 518.372,718.185 506.5,717.5C 521.976,717.064 536.976,717.064 551.5,717.5 Z"/></g>
<g><path style="opacity:1" fill="#422c57" d="M 419.5,732.5 C 405.304,732.839 391.304,733.839 377.5,735.5C 376.596,734.791 376.263,733.791 376.5,732.5C 390.833,732.5 405.167,732.5 419.5,732.5 Z"/></g>
<g><path style="opacity:1" fill="#6c498c" d="M 419.5,732.5 C 492.696,733.359 565.696,733.359 638.5,732.5C 638.358,737.041 636.358,740.374 632.5,742.5C 549.835,743.667 467.169,743.833 384.5,743C 381.283,741.285 378.95,738.785 377.5,735.5C 391.304,733.839 405.304,732.839 419.5,732.5 Z"/></g>
</svg>
